# xmcd CD database file
#
# Track frame offsets:
#	150
#	12956
#	32951
#	48278
#	60689
#	73884
#	87929
#	100352
#	114632
#	128681
#	142769
#	155479
#	168447
#	182718
#	196117
#	209914
#	224208
#	237766
#
# Disc length: 3352 seconds
#
# Revision: 2
# Processed by: cddbd v1.5.2PL0 Copyright (c) Steve Scherf et al.
# Submitted via: jetAudio 7
#
DISCID=0c0d1612
DTITLE=Various Artist - Bristol Sessions
DYEAR=1900
DGENRE=country
TTITLE0=Big Bend Gal-Shelor Family
TTITLE1=Pretty Polly-B.F. Shelton
TTITLE2=What Will I Do?-Uncle Eck and Hattie
TTITLE3=At the River-Tennessee Mountaineers
TTITLE4=Miss Liza, Poor Gal-Tenneva Ramblers
TTITLE5=Soldier's Sweetheart-Jimmie Rodgers
TTITLE6=Single Girl, Married Girl-Carter Family
TTITLE7=Called to a Foreign Field-Alfred Karnes
TTITLE8=Just a Message from Carolina-Johnson Brothers
TTITLE9=Sweeping through the Gates-Ernest Stoneman
TTITLE10=The Storms are on the Ocean-Carter Family
TTITLE11=Narrow Gauge Blues-Watson
TTITLE12=Dying Girl's Farewell-Ernest Stoneman
TTITLE13=Train on the Island-J.P. Nestor
TTITLE14=You Must Unload-Blind Alfred Reed
TTITLE15=Your Blue Eyes Run Me Crazy-West Virginia Coon Hunters
TTITLE16=Remember Me O Mighty One-Alcoa Quartet
TTITLE17=Sleep Baby Sleep-Jimmie Rodgers
EXTD=
EXTT0=
EXTT1=
EXTT2=
EXTT3=
EXTT4=
EXTT5=
EXTT6=
EXTT7=
EXTT8=
EXTT9=
EXTT10=
EXTT11=
EXTT12=
EXTT13=
EXTT14=
EXTT15=
EXTT16=
EXTT17=
PLAYORDER=
